<svg id="visual" viewBox="0 0 900 450" width="900" height="450" xmlns="http://www.w3.org/2000/svg" xmlns:xlink="http://www.w3.org/1999/xlink" version="1.1"><rect x="0" y="0" width="900" height="450" fill="#002233"></rect><path d="M0 213L21.5 210.8C43 208.7 86 204.3 128.8 200.5C171.7 196.7 214.3 193.3 257.2 211C300 228.7 343 267.3 385.8 260C428.7 252.7 471.3 199.3 514.2 185.5C557 171.7 600 197.3 642.8 209.8C685.7 222.3 728.3 221.7 771.2 229C814 236.3 857 251.7 878.5 259.3L900 267L900 451L878.5 451C857 451 814 451 771.2 451C728.3 451 685.7 451 642.8 451C600 451 557 451 514.2 451C471.3 451 428.7 451 385.8 451C343 451 300 451 257.2 451C214.3 451 171.7 451 128.8 451C86 451 43 451 21.5 451L0 451Z" fill="#0066FF" stroke-linecap="round" stroke-linejoin="miter"></path></svg>