<svg id="visual" viewBox="0 0 900 450" width="900" height="450" xmlns="http://www.w3.org/2000/svg" xmlns:xlink="http://www.w3.org/1999/xlink" version="1.1"><rect x="0" y="0" width="900" height="450" fill="#002233"></rect><path d="M0 122L21.5 131C43 140 86 158 128.8 157C171.7 156 214.3 136 257.2 130.2C300 124.3 343 132.7 385.8 156.2C428.7 179.7 471.3 218.3 514.2 227.8C557 237.3 600 217.7 642.8 205.5C685.7 193.3 728.3 188.7 771.2 210.7C814 232.7 857 281.3 878.5 305.7L900 330L900 0L878.5 0C857 0 814 0 771.2 0C728.3 0 685.7 0 642.8 0C600 0 557 0 514.2 0C471.3 0 428.7 0 385.8 0C343 0 300 0 257.2 0C214.3 0 171.7 0 128.8 0C86 0 43 0 21.5 0L0 0Z" fill="#0066FF" stroke-linecap="round" stroke-linejoin="miter"></path></svg>